<svg xmlns="http://www.w3.org/2000/svg" xmlns:xlink="http://www.w3.org/1999/xlink" viewBox="0 0 2361.26 1831.24">
    <defs>
        <style>
            .cls-1,.cls-19{fill:none;}.cls-2{fill:url(#linear-gradient);}.cls-3{fill:url(#linear-gradient-2);}.cls-4{fill:url(#linear-gradient-3);}.cls-5{fill:url(#新建渐变色板_5);}.cls-6{fill:url(#新建渐变色板_5-2);}.cls-7{fill:url(#新建渐变色板_3);}.cls-8{fill:url(#新建渐变色板_3-2);}.cls-9{fill:url(#新建渐变色板_4);}.cls-10{fill:url(#新建渐变色板_4-2);}.cls-11{fill:url(#新建渐变色板_4-3);}.cls-12{fill:url(#linear-gradient-4);}.cls-13{fill:url(#linear-gradient-5);}.cls-14{fill:url(#未命名的渐变_129);}.cls-15{fill:url(#未命名的渐变_120);}.cls-16{fill:url(#新建渐变色板_1);}.cls-17{fill:#fff;}.cls-18{clip-path:url(#clip-path);}.cls-19{stroke:#040000;stroke-miterlimit:10;}
        </style>
        <linearGradient id="linear-gradient" x1="381.47" y1="1354.95" x2="-25.1" y2="1393.1"
                        gradientUnits="userSpaceOnUse">
            <stop offset="0" stop-color="#007f31"/>
            <stop offset="1" stop-color="#8fc31f"/>
        </linearGradient>
        <linearGradient id="linear-gradient-2" x1="332.56" y1="1125.18" x2="445.92" y2="1421.66"
                        xlink:href="#linear-gradient"/>
        <linearGradient id="linear-gradient-3" x1="272.55" y1="1379.27" x2="176.62" y2="1115.48"
                        xlink:href="#linear-gradient"/>
        <linearGradient id="新建渐变色板_5" x1="596.95" y1="1509.61" x2="683.9" y2="1110.65" gradientUnits="userSpaceOnUse">
            <stop offset="0" stop-color="#42bdd4"/>
            <stop offset="1" stop-color="#e3e648"/>
        </linearGradient>
        <linearGradient id="新建渐变色板_5-2" x1="684.39" y1="1294.06" x2="956.76" y2="1330.59" xlink:href="#新建渐变色板_5"/>
        <linearGradient id="新建渐变色板_3" x1="1099.46" y1="999.46" x2="1099.46" y2="1289.48" gradientUnits="userSpaceOnUse">
            <stop offset="0" stop-color="#9f0039"/>
            <stop offset="0.03" stop-color="#a9003a"/>
            <stop offset="0.13" stop-color="#bf003c"/>
            <stop offset="0.24" stop-color="#d1003e"/>
            <stop offset="0.37" stop-color="#dd003f"/>
            <stop offset="0.55" stop-color="#e40040"/>
            <stop offset="1" stop-color="#e60040"/>
        </linearGradient>
        <linearGradient id="新建渐变色板_3-2" x1="1120.74" y1="1268.39" x2="1158.25" y2="1537.76" xlink:href="#新建渐变色板_3"/>
        <linearGradient id="新建渐变色板_4" x1="1375.01" y1="1124.37" x2="1375.01" y2="1346.01"
                        gradientUnits="userSpaceOnUse">
            <stop offset="0" stop-color="#d86400"/>
            <stop offset="0.06" stop-color="#e0790c"/>
            <stop offset="0.15" stop-color="#e98f18"/>
            <stop offset="0.26" stop-color="#f0a121"/>
            <stop offset="0.39" stop-color="#f4ad28"/>
            <stop offset="0.56" stop-color="#f7b42c"/>
            <stop offset="1" stop-color="#f8b62d"/>
        </linearGradient>
        <linearGradient id="新建渐变色板_4-2" x1="1375.07" y1="1273.55" x2="1375.07" y2="1514.81" xlink:href="#新建渐变色板_4"/>
        <linearGradient id="新建渐变色板_4-3" x1="1372.33" y1="1015.88" x2="1376.6" y2="1123.29" xlink:href="#新建渐变色板_4"/>
        <linearGradient id="linear-gradient-4" x1="1560.84" y1="1520.2" x2="1647.79" y2="1121.24"
                        gradientUnits="userSpaceOnUse">
            <stop offset="0" stop-color="#941a66"/>
            <stop offset="1" stop-color="#e95b9c"/>
        </linearGradient>
        <linearGradient id="linear-gradient-5" x1="1678.35" y1="1308.68" x2="1898.27" y2="1338.17"
                        xlink:href="#linear-gradient-4"/>
        <linearGradient id="未命名的渐变_129" x1="2054.85" y1="1305.53" x2="2328.57" y2="1111.97"
                        gradientUnits="userSpaceOnUse">
            <stop offset="0" stop-color="#0f56a6"/>
            <stop offset="1" stop-color="#4cc0e8"/>
        </linearGradient>
        <linearGradient id="未命名的渐变_120" x1="2351.89" y1="1198.88" x2="1917.13" y2="1513.44"
                        gradientUnits="userSpaceOnUse">
            <stop offset="0" stop-color="#1a4fa1"/>
            <stop offset="1" stop-color="#5ac2df"/>
        </linearGradient>
        <linearGradient id="新建渐变色板_1" x1="2082.63" y1="1410.62" x2="2384.4" y2="1525.7" gradientUnits="userSpaceOnUse">
            <stop offset="0" stop-color="#1d4b9f"/>
            <stop offset="1" stop-color="#5ac4ea"/>
        </linearGradient>
        <clipPath id="clip-path" transform="translate(0 -93)">
            <rect class="cls-1" x="587.46" width="1024" height="1024"/>
        </clipPath>
    </defs>
    <title>资源 6</title>
    <g id="图层_2" data-name="图层 2">
        <g id="Layer_1" data-name="Layer 1">
            <path class="cls-2"
                  d="M144.24,1318.67s49.87,79.31,133.8,47.7c0,0,89.38-33.79,63.22-141.7,0,0,39.24,48,15.26,244.15,0,0-79.57,60-203.83,16.36C152.69,1485.18,94.38,1400.7,144.24,1318.67Z"
                  transform="translate(0 -93)"/>
            <path class="cls-3"
                  d="M291.12,1168s67.58,31.62,69.76,157l-4.36,143.88s21.8,33.8,60,31.62c0,0,51.23-3.28,58.86-68.67V1277s13.08-82.84-55.59-167.86C419.74,1109.12,321.64,1098.22,291.12,1168Z"
                  transform="translate(0 -93)"/>
            <path class="cls-4"
                  d="M419.74,1109.12S315.1,1111.3,291.12,1168c0,0-75.76-48-139.52,28.07,0,0-46.6,59.68-7.36,122.62,0,0-35.15,71.67,8.45,166.51,0,0-157-56.68-152.6-233.26,0,0,7.63-204.93,228.9-226.73C229,1025.19,331.45,1012.11,419.74,1109.12Z"
                  transform="translate(0 -93)"/>
            <path class="cls-5"
                  d="M746,1127.64s-180.73,8.09-176.89,211.41l1.28,108.69s-1.28,48.59,53.71,51.15c0,0,49.86-7.67,47.31-71.61V1308.36s-6.4-43.48,58.82-74.16Z"
                  transform="translate(0 -93)"/>
            <path class="cls-6"
                  d="M697.61,1255.29S761.33,1189,825.27,1264c0,0,20.46,17.91,17.05,80.14l-.85,102.3s2.55,52.85,56.26,52.85c0,0,42.63-6,43.48-57.12V1288.75s-15.36-162-195.22-161.11C746,1127.64,683.12,1144.48,697.61,1255.29Z"
                  transform="translate(0 -93)"/>
            <path class="cls-7"
                  d="M1048.74,1071.74l1,252.32s41.1-62.22,99.69-73.31l.77-175.6s-2.63-48-49.52-51.15C1100.67,1024,1054.21,1023.89,1048.74,1071.74Z"
                  transform="translate(0 -93)"/>
            <path class="cls-8"
                  d="M1049.7,1312.15s-1.92,20-1.44,55.48c.69,51.85,25.06,123.54,102.88,143.13,0,0,83.55,28.13,83.55-53.7,0,0-1.7-22.17-25.58-35,0,0-9.67-5.24-30.68-5.11,0,0-24.73-4.26-29.84-34.1l.85-137.35s-81.83,13.75-98.88,63.19Z"
                  transform="translate(0 -93)"/>
            <path class="cls-9"
                  d="M1325.57,1190.86l.85,181.58s40.92-81.84,98-92.92v-85.25s-2.55-48-48.27-51.15C1376.18,1143.12,1330.89,1143,1325.57,1190.86Z"
                  transform="translate(0 -93)"/>
            <path class="cls-10"
                  d="M1424.45,1467.07l.11-193.52s-73.2,16.63-98.46,99.32l-.53,90.79s2.55,47.95,48.27,51.15C1373.84,1514.81,1419.12,1514.91,1424.45,1467.07Z"
                  transform="translate(0 -93)"/>
            <path class="cls-11" d="M1425.42,1075.35a50.73,50.73,0,1,1-50.73-50.72A50.72,50.72,0,0,1,1425.42,1075.35Z"
                  transform="translate(0 -93)"/>
            <path class="cls-12"
                  d="M1709.88,1138.23s-180.73,8.09-176.89,211.41l1.28,108.68s-1.28,48.59,53.71,51.15c0,0,49.86-7.67,47.31-71.61V1318.94s-6.4-43.47,58.82-74.16Z"
                  transform="translate(0 -93)"/>
            <path class="cls-13"
                  d="M1661.5,1265.88s63.72-66.28,127.66,8.74c0,0,20.46,17.9,17,80.13l-.85,102.31s2.55,52.84,56.26,52.84c0,0,42.62-6,43.48-57.11V1299.34s-15.36-162-195.22-161.11C1709.88,1138.23,1647,1155.06,1661.5,1265.88Z"
                  transform="translate(0 -93)"/>
            <path class="cls-14"
                  d="M2105.56,1273.71s65.64-86.09,139.8.86c0,0,81,3.41,65.64-73.31,0,0-45.18-64.79-149.18-63.94,0,0-167.08,12.79-172.2,190.1Z"
                  transform="translate(0 -93)"/>
            <path class="cls-15"
                  d="M2105.56,1273.71l139.8.86s84.39-7.68,62.23-77.58c0,0,61.38,60.53,52.86,140.66,0,0-10.23,37.51-53.71,37.51l-200.33-.85s-75,22.17-56.26,85.24c0,0-62.23-51.14-60.53-140.65C1989.62,1318.9,2014.34,1246.43,2105.56,1273.71Z"
                  transform="translate(0 -93)"/>
            <path class="cls-16"
                  d="M2106.41,1374.31s23.86,41.77,81,34.1c0,0,14.5.85,33.26-10.23,0,0,27.27-14.49,53.7,12.79,0,0,47.74,47.73-28.13,86.09,0,0-116.79,47.74-196.07-37.51C2050.15,1459.55,2009.23,1405.85,2106.41,1374.31Z"
                  transform="translate(0 -93)"/>
            <path class="cls-17"
                  d="M326.37,1924.24a78.77,78.77,0,0,1-21.39-3l-109.7-37.93L75.47,1921.53a69.66,69.66,0,0,1-20.23,2.71H16.34a33.42,33.42,0,0,1,1.75-6,22.84,22.84,0,0,1,4.67-7.34,29.58,29.58,0,0,1,8.36-6.34,26.41,26.41,0,0,1,12.45-2.67H59.13c2.07,0,3.89-.06,5.44-.17a18.58,18.58,0,0,0,5.06-1.19L159.1,1871l-71.19-24.45q-13.62-4.75-18.67-13.92t-.39-19.69L91,1762.69H19.84a37.53,37.53,0,0,1,1.75-6.17,21,21,0,0,1,4.67-7.34,31.79,31.79,0,0,1,8.36-6.17,26.41,26.41,0,0,1,12.45-2.67h54.07L126,1683.1h31.12l-24.51,57.24H370.33a31,31,0,0,1-1.95,6.17,25.37,25.37,0,0,1-4.67,7.34,28.66,28.66,0,0,1-8.16,6.18,26.59,26.59,0,0,1-12.45,2.66H309.64v66.2a22.66,22.66,0,0,1-5.83,15.46,33.6,33.6,0,0,1-15.56,9.67l-54.85,17.31,82.47,29.2a18.67,18.67,0,0,0,5.25,1.19c1.68.11,3.43.17,5.25.17h19.06a25.28,25.28,0,0,1,12.26,2.67,30.49,30.49,0,0,1,8.16,6.34,26.71,26.71,0,0,1,4.87,7.34,28.5,28.5,0,0,1,1.94,6Zm1.95-279.07a34.39,34.39,0,0,1,23.34,8.47q9.72,8.47,9.72,20.32v23.37q0,11.52-8.56,16.76t-21,5.93v-39.63a11.85,11.85,0,0,0-4.28-9,14.58,14.58,0,0,0-10.12-3.89H72.35a15.22,15.22,0,0,0-10.3,3.89q-4.48,3.9-4.48,9v16.94q0,11.52-7.78,16.93T28,1720V1674a24.28,24.28,0,0,1,2.72-11.35,30.82,30.82,0,0,1,7.2-9.14,33.43,33.43,0,0,1,10.5-6.1,37.88,37.88,0,0,1,13-2.2Zm-58.74,189.32a18.38,18.38,0,0,0,7.58-4.91,10.93,10.93,0,0,0,2.92-7.62v-59.27H123.31l-21,49.11a13.74,13.74,0,0,0-.59,9.31c.91,2.83,4.34,5.25,10.31,7.29l85.19,30.14ZM165.71,1633q-6.22,0-9.33-3.5a11,11,0,0,1,0-15.35q3.1-3.5,9.33-3.5h70a31.77,31.77,0,0,1-1.94,6.17,25.72,25.72,0,0,1-4.67,7.34,28.51,28.51,0,0,1-8.17,6.17A26.41,26.41,0,0,1,208.5,1633Z"
                  transform="translate(0 -93)"/>
            <path class="cls-17"
                  d="M418.56,1654.32q-6.62,0-9.72-3.56a10.89,10.89,0,0,1,0-15.24q3.11-3.55,9.72-3.56h60.69q-3.12,11.52-9.92,16.94t-22,5.42Zm0,129q-6.62,0-9.72-3.55a10.89,10.89,0,0,1,0-15.24q3.11-3.57,9.72-3.56h60.69q-3.12,11.52-9.92,16.93t-22,5.42Zm0,128.36q-6.62,0-9.72-3.56a10.89,10.89,0,0,1,0-15.24q3.11-3.56,9.72-3.55h60.69q-3.12,11.85-9.92,17.1t-22,5.25Zm120.59-121.58v97.2a11.67,11.67,0,0,0,4.28,9.14,15.45,15.45,0,0,0,10.51,3.73h32.28c4.93,0,8.88.89,11.87,2.7a23.23,23.23,0,0,1,7,6.27,22.35,22.35,0,0,1,3.5,7.28c.64,2.48,1.1,4.52,1.36,6.1h-67.3a34.35,34.35,0,0,1-23.34-8.46q-9.72-8.46-9.72-20.29V1673.58q0-12.16,9.72-20.63a34.39,34.39,0,0,1,23.34-8.45H715.37a34.39,34.39,0,0,1,23.34,8.45q9.72,8.44,9.73,20.6v88.19a25.09,25.09,0,0,1-2.53,11,28.47,28.47,0,0,1-7,9.12,33.16,33.16,0,0,1-10.51,6.08,37.64,37.64,0,0,1-13,2.2Zm14.79-123.28a15.48,15.48,0,0,0-10.51,3.71,11.64,11.64,0,0,0-4.28,9.12v88.09H704.09a15.43,15.43,0,0,0,10.5-3.71,11.61,11.61,0,0,0,4.28-9.11v-75.27a11.64,11.64,0,0,0-4.28-9.12,15.47,15.47,0,0,0-10.5-3.71Zm-1.56,61.64a34,34,0,0,1,1.75-6,23,23,0,0,1,4.67-7.34,29.58,29.58,0,0,1,8.36-6.34,26.41,26.41,0,0,1,12.45-2.68h126a40.17,40.17,0,0,1-1.75,6.17,21.06,21.06,0,0,1-4.67,7.34,31.82,31.82,0,0,1-8.37,6.18,26.4,26.4,0,0,1-12.44,2.67Zm45.51-94.83q-6.61,0-9.72-3.51a11,11,0,0,1,0-15.34q3.11-3.51,9.72-3.5h73.52a38.56,38.56,0,0,1-1.75,6.17,21.06,21.06,0,0,1-4.66,7.34,32,32,0,0,1-8.37,6.17,26.41,26.41,0,0,1-12.45,2.67ZM706.81,1894.1q5.06,6.09,13.62,6.1h13.22a27.26,27.26,0,0,1,12.65,2.7,28.15,28.15,0,0,1,8.36,6.27,26.9,26.9,0,0,1,4.67,7.28,29.23,29.23,0,0,1,1.94,6.1h-45.9q-12.06,0-20.62-4.91a55.1,55.1,0,0,1-15.56-13.72l-77-101.6,28-.68Zm-12.44-51.82q-6.63,0-9.73-3.55a10.89,10.89,0,0,1,0-15.24q3.11-3.57,9.73-3.56H753.1a29.41,29.41,0,0,1-1.94,6.1,27,27,0,0,1-4.67,7.28,28,28,0,0,1-8.36,6.26,27.26,27.26,0,0,1-12.65,2.71Z"
                  transform="translate(0 -93)"/>
            <path class="cls-17"
                  d="M812.23,1643.14A36.27,36.27,0,0,1,814,1637a22.06,22.06,0,0,1,4.67-7.39,29,29,0,0,1,8.36-6.19,27.18,27.18,0,0,1,12.45-2.58h293.31A37,37,0,0,1,1131,1627a22.22,22.22,0,0,1-4.67,7.39,29.31,29.31,0,0,1-8.36,6.19,27.24,27.24,0,0,1-12.45,2.58h-33.46v117.52h82.86a35.17,35.17,0,0,1-1.75,6.1,21.93,21.93,0,0,1-4.67,7.28,31.57,31.57,0,0,1-8.36,6.26,26.07,26.07,0,0,1-12.45,2.71h-55.63v112.11q0,11.85-6.8,19.3t-22.76,9.48V1783H897l-8.55,113.8q-.79,11.51-10.31,19.3a34.88,34.88,0,0,1-22.76,7.79h-51a39.15,39.15,0,0,1,1.75-6.26,21.25,21.25,0,0,1,4.67-7.45,29,29,0,0,1,8.36-6.1,27.59,27.59,0,0,1,12.45-2.54H843a15.92,15.92,0,0,0,10.51-3.56,10.86,10.86,0,0,0,4.28-8.63L866.69,1783H790.06a38.66,38.66,0,0,1,1.75-6.26,21.34,21.34,0,0,1,4.67-7.45,29,29,0,0,1,8.36-6.1,27.59,27.59,0,0,1,12.45-2.54h51V1643.14Zm85.58,117.52h144.71V1643.14H897.81Z"
                  transform="translate(0 -93)"/>
            <path class="cls-17"
                  d="M1266.19,1923.23a34.23,34.23,0,0,1,1.76-6.1,27.09,27.09,0,0,1,4.08-7.28,24.87,24.87,0,0,1,7.39-6.27q4.66-2.71,12.06-2.71H1307a12.14,12.14,0,0,0,8-2.71,8.75,8.75,0,0,0,3.31-7.11V1750.16a8.59,8.59,0,0,0-3.31-6.6,11.71,11.71,0,0,0-8-2.88h-59.13l-8.17,154.44q-.78,14.89-8.75,21.5t-22,6.61h-30.34a19.91,19.91,0,0,1,5.83-16.26q6.62-6.78,17.9-6.1,4.27.33,6.42-2.2a9.41,9.41,0,0,0,2.14-6.26L1223,1668.54H1183a34.23,34.23,0,0,1,1.75-6.09,21.56,21.56,0,0,1,4.67-7.29,31.79,31.79,0,0,1,8.36-6.26,26,26,0,0,1,12.45-2.71h154.43a32.27,32.27,0,0,1-1.94,6.26,26.25,26.25,0,0,1-4.67,7.46,25.92,25.92,0,0,1-8.36,6.09,28.91,28.91,0,0,1-12.65,2.54h-84.8l-3.11,49.79h69.24q12.45,0,21,7.45t8.55,18v153.76a23.32,23.32,0,0,1-8.55,18.28q-8.57,7.45-21,7.46Zm-13.61-291.6q-6.22,0-9.34-3.51a11,11,0,0,1,0-15.34q3.12-3.51,9.34-3.51h64.57a31.36,31.36,0,0,1-1.94,6.17,23.78,23.78,0,0,1-4.86,7.34,32.91,32.91,0,0,1-8.17,6.18,25.28,25.28,0,0,1-12.26,2.67Zm258.3,291.6a39.43,39.43,0,0,1-19.45-4.75,37.91,37.91,0,0,1-14-13.54l-31.12-52.5L1416,1905.28a33.59,33.59,0,0,1-13.81,13.37,40.9,40.9,0,0,1-19.25,4.58h-32.68A37.91,37.91,0,0,1,1352,1917a21.25,21.25,0,0,1,4.67-7.45,29.19,29.19,0,0,1,8.36-6.1q5.05-2.54,12.84-2.54h2.72q7,0,10.11-5.42l40.46-69.09-58.35-98.55h30.34l43.18,71.8,33.07-56.56a43.8,43.8,0,0,0,6.22-22.69V1668.2h-77l-7.78,29.47a32.42,32.42,0,0,1-11.09,16.76q-8,6.27-24.7,6.61l30.73-113.46h29.18l-10.12,38.27h129.93a40.61,40.61,0,0,1-1.75,6.27,21.49,21.49,0,0,1-4.67,7.45,29.26,29.26,0,0,1-8.36,6.09,27.51,27.51,0,0,1-12.45,2.54h-2.34v55.21a44.28,44.28,0,0,1-6.22,22.35l-46.68,79.93,42.4,69.76q2.71,5.41,9.73,5.42h3.11a27.65,27.65,0,0,1,12.45,2.54,29.47,29.47,0,0,1,8.36,6.1A21.4,21.4,0,0,1,1543,1917a40,40,0,0,1,1.75,6.27Z"
                  transform="translate(0 -93)"/>
            <path class="cls-17"
                  d="M1587.51,1643.14a38.11,38.11,0,0,1,1.75-6.26,21.38,21.38,0,0,1,4.67-7.46,29,29,0,0,1,8.36-6.09,27.46,27.46,0,0,1,12.45-2.54h298.75a35.11,35.11,0,0,1-1.75,6.09,21.87,21.87,0,0,1-4.67,7.29,31.57,31.57,0,0,1-8.36,6.26,26.07,26.07,0,0,1-12.45,2.71h-121v132.08h167.66a38.93,38.93,0,0,1-1.75,6.27,21.4,21.4,0,0,1-4.67,7.45,29.19,29.19,0,0,1-8.36,6.1,27.62,27.62,0,0,1-12.45,2.54H1765.28v96.52q0,11.85-6.81,19.3t-22.75,9.83V1797.58H1568.06a34.54,34.54,0,0,1,1.75-6.1,21.77,21.77,0,0,1,4.67-7.28,31.81,31.81,0,0,1,8.36-6.27,26.16,26.16,0,0,1,12.45-2.71h140.43V1643.14Zm85.58,108.38a35.41,35.41,0,0,1-11.67,2,32.32,32.32,0,0,1-10.7-1.69,27,27,0,0,1-8.36-4.58,17.62,17.62,0,0,1-5.06-6.26L1607,1669.9h31.12Zm189.44-81.62H1894L1863.7,1741a17.73,17.73,0,0,1-5.06,6.26,27,27,0,0,1-8.36,4.58,32.36,32.36,0,0,1-10.7,1.69,38.91,38.91,0,0,1-12.06-2Z"
                  transform="translate(0 -93)"/>
            <path class="cls-17"
                  d="M2219.15,1644.83h30.13l54,106a90.83,90.83,0,0,1-10.31.85,38.57,38.57,0,0,1-10.89-1.19,33,33,0,0,1-9.53-4.06,18.07,18.07,0,0,1-6.62-7.45l-5.44-10.5a30.52,30.52,0,0,1-10.89,11q-7,4.24-17.12,4.24H2005.29q-10.5,0-17.11-3.22a22.53,22.53,0,0,1-9.73-8.3,18.94,18.94,0,0,1-2.72-11.34,27.9,27.9,0,0,1,4.28-12.7l68.46-100.93h35.79l-70.8,103.64a12.09,12.09,0,0,0-2.14,6.6c-.13,2.6,1.63,3.89,5.26,3.89h240.74Zm37.79,129.72q13.62,0,23.17,8.45t9.54,20.6v88.2a25.68,25.68,0,0,1-2.53,11.32,28.44,28.44,0,0,1-7,9.12,33.35,33.35,0,0,1-10.51,6.08,36.89,36.89,0,0,1-12.66,2.2H2015.45a36.85,36.85,0,0,1-12.66-2.2,33.24,33.24,0,0,1-10.51-6.08,30.89,30.89,0,0,1-7.21-9.12,24.17,24.17,0,0,1-2.73-11.32v-88.2a24.1,24.1,0,0,1,2.73-11.31,32.81,32.81,0,0,1,7.21-9.29,31.52,31.52,0,0,1,10.51-6.26,36.84,36.84,0,0,1,12.66-2.19Zm-11.63,123.61a15.47,15.47,0,0,0,10.5-3.72,11.67,11.67,0,0,0,4.28-9.15v-75.52a11.7,11.7,0,0,0-4.28-9.15,15.47,15.47,0,0,0-10.5-3.72H2026.69a15.43,15.43,0,0,0-10.5,3.72,11.67,11.67,0,0,0-4.28,9.15v75.52a11.64,11.64,0,0,0,4.28,9.15,15.43,15.43,0,0,0,10.5,3.72Z"
                  transform="translate(0 -93)"/>
            <g class="cls-18">
                <g class="cls-18">
                    <path class="cls-17"
                          d="M1518,507c0,228.37-185.13,413.5-413.5,413.5S691,735.37,691,507,876.09,93.5,1104.46,93.5,1518,278.63,1518,507m-165.78,3.73.1-.09c-2.29-1.08-2-.91-.1.09m0,0,0,0-.28.23-.58.48-1.15.94-4.61,3.82L1332,527.51c-1.28-.58-1.41-.63,0,0l-5,4.19c-25,20.79-51.14,41.39-78.34,61.42-107.43,80.32-225.9,120.65-313.81,132.39l-1,.13c28.07-12.32,71.43-37.39,114.67-89.57,68.26-82.67,104.79-232,82.4-388a313.05,313.05,0,0,1,41,55.58c33,56.3,42.59,117.34,34.24,166.81-17.67,95.31-75.07,141-78.27,146.36,3.54-4.51,72.12-33.34,110.51-138.62,18.44-54.7,16.75-129.66-16.7-200.07a339.62,339.62,0,0,0-70.47-99,317.35,317.35,0,0,0-33.42-28.39c6.38-4.84,5.14-3.93-.05,0-5.7-4.21-11.56-8.29-17.61-12.18l-1.74-1.14-.88-.58-.43-.28-.23-.14c9.29-7.17-42.24,32.26-48.76,36.95l.81,3.37,1.67,7,3.41,14c2.54,9.29,3.91,19,6,28.59C1090,380.84,1073.48,528.4,1021,617.51c-36.22,61.68-79.6,94.55-102.48,109.63-36.18,2.43-65.57-3.68-83.82-15.17-21-13-27.89-27.1-28.53-26.36.9-.65,3,14.74,22.15,34.51,19.1,20,58.72,36.28,107.28,38.48,95.26,5.15,233-23.31,352.08-112q12.94-9.52,25.27-19.33c-18.26,30.49-41.89,56.74-63.33,78.54-64.56,63.26-110.76,99.37-109.77,100.09-.45-1.18,52.94-21.87,131.22-74.85,38-27.33,84.82-64.42,114.8-127.5a193.71,193.71,0,0,0,15.51-51.67l1.85-14,.43-3.54c-11.38-3.89-44-19.8-51.45-23.6M1048,173.35l0-.11c-.92.75-.83.72,0,.11m79.63,443.88a.86.86,0,0,1,.15-.34.5.5,0,0,0-.15.34m.18.21a.29.29,0,0,1-.18-.21q0,.18.18.21"
                          transform="translate(0 -93)"/>
                    <path class="cls-19"
                          d="M1518,507c0,228.37-185.13,413.5-413.5,413.5S691,735.37,691,507,876.09,93.5,1104.46,93.5,1518,278.63,1518,507Zm-165.78,3.73.1-.09C1350,509.56,1350.23,509.73,1352.18,510.73Zm0,0,0,0-.28.23-.58.48-1.15.94-4.61,3.82L1332,527.51c-1.28-.58-1.41-.63,0,0l-5,4.19c-25,20.79-51.14,41.39-78.34,61.42-107.43,80.32-225.9,120.65-313.81,132.39l-1,.13c28.07-12.32,71.43-37.39,114.67-89.57,68.26-82.67,104.79-232,82.4-388a313.05,313.05,0,0,1,41,55.58c33,56.3,42.59,117.34,34.24,166.81-17.67,95.31-75.07,141-78.27,146.36,3.54-4.51,72.12-33.34,110.51-138.62,18.44-54.7,16.75-129.66-16.7-200.07a339.62,339.62,0,0,0-70.47-99,317.35,317.35,0,0,0-33.42-28.39c6.38-4.84,5.14-3.93-.05,0-5.7-4.21-11.56-8.29-17.61-12.18l-1.74-1.14-.88-.58-.43-.28-.23-.14c9.29-7.17-42.24,32.26-48.76,36.95l.81,3.37,1.67,7,3.41,14c2.54,9.29,3.91,19,6,28.59C1090,380.84,1073.48,528.4,1021,617.51c-36.22,61.68-79.6,94.55-102.48,109.63-36.18,2.43-65.57-3.68-83.82-15.17-21-13-27.89-27.1-28.53-26.36.9-.65,3,14.74,22.15,34.51,19.1,20,58.72,36.28,107.28,38.48,95.26,5.15,233-23.31,352.08-112q12.94-9.52,25.27-19.33c-18.26,30.49-41.89,56.74-63.33,78.54-64.56,63.26-110.76,99.37-109.77,100.09-.45-1.18,52.94-21.87,131.22-74.85,38-27.33,84.82-64.42,114.8-127.5a193.71,193.71,0,0,0,15.51-51.67l1.85-14,.43-3.54C1392.25,530.44,1359.65,514.53,1352.18,510.73ZM1048,173.35l0-.11C1047,174,1047.1,174,1048,173.35Zm79.63,443.88a.86.86,0,0,1,.15-.34A.5.5,0,0,0,1127.58,617.23Zm.18.21a.29.29,0,0,1-.18-.21Q1127.57,617.41,1127.76,617.44Z"
                          transform="translate(0 -93)"/>
                </g>
            </g>
        </g>
    </g>
</svg>
